<svg width="92" height="110" viewBox="0 0 92 110" fill="none" xmlns="http://www.w3.org/2000/svg">
<path d="M55.2238 34.865C55.0084 34.7573 54.8408 34.6495 54.7451 34.5239C54.1466 33.7937 53.7696 32.7704 53.5422 31.8008C58.0724 30.0234 61.304 25.4332 61.304 20.041C61.304 13.1107 55.9777 7.49707 49.3948 7.49707C42.8299 7.49707 37.5038 13.1107 37.5038 20.041C37.5038 25.4332 40.7354 30.0234 45.2656 31.8008C45.0263 32.7704 44.6552 33.7937 44.0627 34.5239C42.5666 36.3432 26.1692 36.1158 26.5403 61.0001C34.0807 53.1123 43.7696 43.8779 55.2238 34.865Z" fill="white"/>
<path d="M27.5464 74.0887C29.9701 92.4557 35.805 101.127 38.887 102.055C42.4298 103.114 46.3555 102.348 47.325 100.804C49.5632 97.2194 36.7205 82.5809 39.8564 79.9357C41.1849 78.8166 47.0557 78.6729 49.3956 78.661C51.7415 78.6729 57.6124 78.8166 58.9409 79.9357C62.0828 82.5809 49.2401 97.2194 51.4843 100.804C52.4538 102.348 56.3676 103.114 59.9223 102.055C62.9325 101.133 68.6118 92.7728 71.1073 75.136C54.8415 72.7062 38.0791 73.2808 27.5464 74.0887Z" fill="white"/>
<path d="M34.9185 64.7768C45.3315 64.2981 58.7187 64.3878 72.0163 66.3508C72.1 65.094 72.1719 63.8073 72.2258 62.4727C72.7823 48.8755 68.5213 42.3822 64.0629 39.0068C52.5906 47.6846 42.7222 56.8112 34.9185 64.7768Z" fill="white"/>
<path d="M81.1488 27.2986C83.1476 26.0717 83.8298 23.3726 82.6569 21.266C81.4959 19.1654 78.9465 18.4472 76.9417 19.6741C69.1619 24.4499 61.9029 29.6146 55.2242 34.8632C56.6605 35.5814 60.4366 36.2576 64.0631 39.0046C69.4372 34.953 75.1344 30.9911 81.1488 27.2986Z" fill="white"/>
<path d="M81.6446 68.139C78.4728 67.4089 75.2471 66.8284 72.0155 66.3496C71.8061 69.5095 71.4889 72.43 71.1059 75.1351C74.0682 75.5779 76.9947 76.1046 79.8792 76.7689C80.1784 76.8347 80.4836 76.8646 80.7709 76.8646C82.6979 76.8646 84.4333 75.4403 84.8522 73.3756C85.3489 70.9937 83.9008 68.6477 81.6446 68.139Z" fill="white"/>
<path d="M26.7194 65.2785C26.6656 64.3569 26.6117 63.4293 26.5698 62.4717C26.5459 61.963 26.5459 61.4843 26.5399 60.9995C24.9899 62.6214 23.5298 64.1893 22.1534 65.6915C18.9876 69.1566 16.3363 72.2208 14.2358 74.7463C10.8366 78.8279 8.89171 81.4432 8.60446 81.8262C7.19212 83.7533 7.52126 86.5241 9.34652 88.0203C10.1125 88.6427 11.0162 88.9479 11.9079 88.9479C13.1586 88.9479 14.3974 88.3614 15.2173 87.2423C15.319 87.1047 19.1849 81.9099 26.0731 74.2077H26.0791C26.5458 74.1598 27.0427 74.1299 27.5454 74.088C27.4915 73.6511 27.4376 73.2023 27.3838 72.7594C27.1025 70.4134 26.875 67.9297 26.7194 65.2785Z" fill="white"/>
</svg>
