<svg width="85" height="110" viewBox="0 0 85 110" fill="none" xmlns="http://www.w3.org/2000/svg">
<path d="M69.2505 24.4543H65.2298L65.2614 24.3699L64.8287 23.4835C63.4991 20.7396 58.861 11.6531 55.1833 9.95924L54.7453 9.75879H29.8876L29.4497 9.95924C25.7719 11.6531 21.1391 20.7396 19.8095 23.4835L19.3715 24.3699L19.4084 24.4543H15.3877C14.1689 24.4543 13.1874 25.3092 13.1874 26.3645V28.4013C13.1874 29.4566 14.1689 30.3168 15.3877 30.3168H16.6647C16.5328 30.9605 16.443 31.6254 16.443 32.3219V41.4295C16.443 44.1681 17.5353 46.5742 19.1974 48.0675V55.5921C19.1974 56.811 20.1788 57.7977 21.3977 57.7977H26.3524C27.566 57.7977 28.5527 56.811 28.5527 55.5921V49.6294H56.0803V55.5921C56.0803 56.811 57.067 57.7977 58.2858 57.7977H63.2352C64.4594 57.7977 65.4408 56.811 65.4408 55.5921V48.0675C67.1029 46.5742 68.1952 44.1681 68.1952 41.4295V32.3219C68.1952 31.6254 68.1055 30.9605 67.9736 30.3168H69.2505C70.4641 30.3168 71.4561 29.4566 71.4561 28.4013V26.3645C71.4561 25.3092 70.4641 24.4543 69.2505 24.4543ZM30.964 14.1648H53.6689C55.1727 15.2992 58.022 19.8214 60.2224 24.1167H24.4159C26.6162 19.8214 29.4655 15.2992 30.964 14.1648Z" fill="white"/>
<path d="M30.1309 65.1927C30.1309 65.1927 31.1598 65.3721 32.8799 65.8786C33.74 66.1689 34.7848 66.5277 35.9614 67.1187C37.1275 67.7466 38.4783 68.4853 39.75 70.0894C40.3937 70.8387 40.9108 72.0524 40.9794 73.4032C41.0058 74.0522 40.8633 74.7382 40.705 75.3767L40.3356 76.2368L40.1299 76.6642L40.0244 76.8806L39.808 77.1814L39.6286 77.4399C39.5864 77.5138 39.5125 77.6193 39.3489 77.7829C39.0957 78.0573 38.758 78.4055 38.5152 78.5849C38.0298 78.986 37.5338 79.3078 37.0325 79.598C36.0247 80.1257 35.0328 80.4951 34.046 80.817C30.1309 82.0464 26.184 82.4263 22.5116 83.1492C20.707 83.5291 18.9288 83.8932 17.6466 84.4578C17.024 84.7322 16.5702 85.0595 16.4436 85.2178C16.3275 85.4025 16.3855 85.26 16.3644 85.4763V85.4922C16.3855 85.7771 16.338 85.1069 16.3433 85.1808L16.3486 85.2019V85.2493L16.3644 85.4129L16.4013 85.756L16.4752 86.4313C16.4911 86.7162 16.5491 86.7162 16.586 86.8165C16.6177 86.9009 16.6493 86.9855 16.6652 87.0752C16.6441 87.2176 16.8604 87.5711 16.9448 87.8244C17.0398 88.1041 17.1981 88.3785 17.3564 88.6582C17.9526 89.7768 18.7758 90.869 19.6411 91.8452C21.3507 93.8292 23.0973 95.4544 24.3214 96.5889C25.5561 97.7551 26.2632 98.42 26.2632 98.42L26.279 98.4358C26.7064 98.8421 26.7275 99.5175 26.3212 99.9502C26.0785 100.204 25.7355 100.314 25.4137 100.277C25.4137 100.277 24.3425 100.151 22.596 99.5967C21.7359 99.3065 20.6806 98.9318 19.5303 98.3672C18.38 97.7973 17.082 97.1114 15.7734 96.1141C14.4543 95.1326 13.0666 93.8979 11.8688 92.1724C11.5522 91.7503 11.2514 91.3122 11.0087 90.7899C10.7607 90.2516 10.4811 89.8718 10.2647 89.1436C10.1487 88.8112 10.0484 88.4682 9.95869 88.1252C9.86899 87.8034 9.7529 87.3811 9.7529 87.2122L9.66321 86.5369L9.62099 86.1992L9.5999 86.0303L9.59461 85.9881L9.58933 85.9617L9.56824 85.6135L9.57352 85.4552C9.52075 83.8353 10.307 81.8301 11.4942 80.6481C12.6603 79.4292 13.9055 78.7907 15.0506 78.3053C17.33 77.4082 19.4248 77.0231 21.4721 76.7487C25.5139 76.2157 29.4027 76.0363 32.6108 75.4295C34.1885 75.0865 35.4707 74.6538 35.9614 74.105C36.4258 73.5563 36.5893 73.2344 36.2358 72.3901C35.8506 71.5511 34.943 70.7069 34.1252 70.042C33.2968 69.3508 32.442 68.8336 31.756 68.4009C30.3419 67.5303 29.4977 67.1346 29.4977 67.1346C28.9806 66.8971 28.759 66.285 29.0017 65.7626C29.2022 65.3352 29.6612 65.1135 30.1045 65.1874L30.1309 65.1927Z" fill="white"/>
<path d="M64.5956 65.1927C64.5956 65.1927 65.6299 65.3721 67.35 65.8786C68.2048 66.1689 69.2496 66.5277 70.4262 67.1187C71.5923 67.7466 72.9431 68.4853 74.2148 70.0894C74.8638 70.8387 75.3809 72.0524 75.4494 73.4032C75.4706 74.0522 75.3281 74.7382 75.1751 75.3767L74.8057 76.2368L74.5999 76.6642L74.4944 76.8806L74.2781 77.1814L74.0987 77.4399C74.0512 77.5138 73.9773 77.6193 73.819 77.7829C73.5657 78.0573 73.2228 78.4055 72.9853 78.5849C72.4999 78.986 72.0039 79.3078 71.4973 79.598C70.4948 80.1257 69.5028 80.4951 68.5108 80.817C64.6009 82.0464 60.6541 82.4263 56.9816 83.1492C55.1771 83.5291 53.3989 83.8932 52.1167 84.4578C51.4888 84.7322 51.0403 85.0595 50.9136 85.2178C50.7923 85.4025 50.8503 85.26 50.8345 85.4763V85.4922C50.8503 85.7771 50.8081 85.1069 50.8081 85.1808L50.8134 85.2019L50.8186 85.2493L50.8345 85.4129L50.8714 85.756L50.9453 86.4313C50.9558 86.7162 51.0192 86.7162 51.0508 86.8165C51.0878 86.9009 51.1141 86.9855 51.13 87.0752C51.1141 87.2176 51.3252 87.5711 51.4149 87.8244C51.5099 88.1041 51.6682 88.3785 51.8212 88.6582C52.4227 89.7768 53.2458 90.869 54.1059 91.8452C55.8155 93.8292 57.5673 95.4544 58.7915 96.5889C60.0262 97.7551 60.728 98.42 60.728 98.42L60.7438 98.4358C61.1765 98.8421 61.1976 99.5175 60.7913 99.9502C60.5486 100.204 60.2056 100.314 59.8837 100.277C59.8837 100.277 58.8073 100.151 57.0661 99.5967C56.2007 99.3065 55.1507 98.9318 54.0004 98.3672C52.8501 97.7973 51.5521 97.1114 50.2382 96.1141C48.9191 95.1326 47.5314 93.8979 46.3336 92.1724C46.0223 91.7503 45.7215 91.3122 45.4788 90.7899C45.2255 90.2516 44.9459 89.8718 44.7296 89.1436C44.6187 88.8112 44.5185 88.4682 44.4235 88.1252C44.3391 87.8034 44.223 87.3811 44.2177 87.2122L44.1333 86.5369L44.0858 86.1992L44.0647 86.0303V85.9881L44.0594 85.9617L44.0383 85.6135L44.0436 85.4552C43.9908 83.8353 44.777 81.8301 45.9642 80.6481C47.1251 79.4292 48.3756 78.7907 49.5154 78.3053C51.8001 77.4082 53.8896 77.0231 55.9369 76.7487C59.984 76.2157 63.8728 76.0363 67.0756 75.4295C68.6586 75.0865 69.9408 74.6538 70.4262 74.105C70.8906 73.5563 71.0594 73.2344 70.7006 72.3901C70.3207 71.5511 69.4131 70.7069 68.5953 70.042C67.7668 69.3508 66.912 68.8336 66.2208 68.4009C64.812 67.5303 63.9677 67.1346 63.9677 67.1346C63.4506 66.8971 63.229 66.285 63.4665 65.7626C63.6723 65.3352 64.1313 65.1135 64.5745 65.1874L64.5956 65.1927Z" fill="white"/>
</svg>
