<svg width="109" height="110" viewBox="0 0 109 110" fill="none" xmlns="http://www.w3.org/2000/svg">
<path d="M54.6744 8.46729C29.0046 8.46729 8.12158 29.3464 8.12158 55.0217C8.12158 80.6971 29.0046 101.576 54.6744 101.576C80.3441 101.576 101.227 80.6971 101.227 55.0217C101.227 29.3464 80.3441 8.46729 54.6744 8.46729ZM54.6744 14.7981C73.9619 14.7981 90.1195 28.4406 94.0004 46.579H69.5835C66.627 41.3886 61.0566 37.8735 54.6744 37.8735C48.2921 37.8735 42.717 41.3886 39.7652 46.579H15.3437C19.234 28.4406 35.3821 14.7981 54.6744 14.7981ZM49.5546 94.9168C31.1212 92.5656 16.5404 77.6889 14.6492 59.114H38.0478C39.4791 64.9427 43.881 69.6075 49.5546 71.3909V94.9168ZM49.5546 63.3283C47.9309 62.324 46.6308 60.8551 45.8189 59.114C45.237 57.8704 44.9133 56.4859 44.9133 55.0217C44.9133 51.4128 46.8749 48.2685 49.7845 46.579C51.2252 45.7484 52.8911 45.2603 54.6744 45.2603C56.4529 45.2603 58.1235 45.7484 59.5548 46.579C62.4691 48.2685 64.4308 51.4128 64.4308 55.0217C64.4308 56.4859 64.1069 57.8704 63.525 59.114C62.8304 60.6252 61.7511 61.9204 60.4231 62.8966C58.8087 64.0745 56.8237 64.7831 54.6744 64.7831C52.7972 64.7831 51.0423 64.2481 49.5546 63.3283ZM60.4231 94.837V71.1562C65.7917 69.2368 69.9168 64.7221 71.3011 59.114H94.695C92.8319 77.4777 78.5609 92.2277 60.4231 94.837Z" fill="white"/>
</svg>
